<svg width="470" height="429" viewBox="0 0 470 429" fill="none" xmlns="http://www.w3.org/2000/svg">
<g id="paitaon">
<g id="O PAI">
<path d="M74.7373 47.7168C77.5762 33.5994 84.9909 28.2348 95.0709 28.2348C105.151 28.2348 110.408 33.5994 107.569 47.7168L86.1074 154.444C83.2685 168.562 75.8538 173.926 65.7738 173.926C55.6937 173.926 50.4365 168.562 53.2754 154.444L74.7373 47.7168ZM21.9928 152.468C15.6338 184.091 28.992 202.161 60.096 202.161C91.2 202.161 111.826 184.091 118.185 152.468L138.852 49.6932C145.211 18.0703 131.853 0 100.749 0C69.6447 0 49.0189 18.0703 42.6598 49.6932L21.9928 152.468Z" fill="#EEEEEE"/>
<path d="M260.353 2.25877H213.697L173.952 199.902H205.632L220.565 125.645H235.541C267.221 125.645 286.236 108.422 292.595 76.7986L297.762 51.105C304.121 19.482 292.033 2.25877 260.353 2.25877ZM254.675 30.4936C264.755 30.4936 269.319 35.0111 266.48 49.1285L260.518 78.7751C257.679 92.8924 251.299 97.41 241.219 97.41H226.243L239.699 30.4936H254.675Z" fill="#EEEEEE"/>
<path d="M390.281 2.25877H343.913L271.913 199.902H301.001L313.684 164.044H352.564L350.825 199.902H382.793L390.281 2.25877ZM358.473 37.2699L353.638 137.221H323.11L358.473 37.2699Z" fill="#EEEEEE"/>
<path d="M397.546 199.902H429.226L468.97 2.25877H437.29L397.546 199.902Z" fill="#EEEEEE"/>
</g>
<g id="t&#195;&#161; on">
<path d="M27.4911 278.978H56.4259L29.2966 426.504H56.9734L84.1028 278.978H113.038L117.559 254.39H32.0126L27.4911 278.978Z" fill="#C62C28"/>
<path d="M181.558 254.39H141.049L81.2181 426.504H106.63L117.153 395.277H151.12L150.159 426.504H178.087L181.558 254.39ZM154.313 284.879L151.642 371.919H124.971L154.313 284.879ZM170.386 218L148.257 245.292H166.876L197.559 218H170.386Z" fill="#C62C28"/>
<path d="M279.827 293.976C282.088 281.682 288.483 277.011 297.289 277.011C306.095 277.011 310.772 281.682 308.511 293.976L291.419 386.918C289.158 399.211 282.764 403.883 273.958 403.883C265.151 403.883 260.475 399.211 262.736 386.918L279.827 293.976ZM235.376 385.196C230.312 412.735 242.263 428.471 269.436 428.471C296.61 428.471 314.348 412.735 319.413 385.196L335.871 295.697C340.935 268.159 328.984 252.423 301.811 252.423C274.637 252.423 256.898 268.159 251.834 295.697L235.376 385.196Z" fill="#C62C28"/>
<path d="M388.93 426.504H417.362L449.013 254.39H424.355L405.41 357.412L395.924 254.39H361.202L329.551 426.504H354.46L377.384 301.844L388.93 426.504Z" fill="#C62C28"/>
</g>
</g>
</svg>
