<svg width="32" height="24" viewBox="0 0 32 24" fill="none" xmlns="http://www.w3.org/2000/svg">
<path id="youtube" d="M31.3313 3.75519C30.9633 2.27706 29.879 1.11294 28.5022 0.717875C26.0067 0 16 0 16 0C16 0 5.99337 0 3.49781 0.717875C2.12103 1.113 1.0367 2.27706 0.668671 3.75519C0 6.43438 0 12.0243 0 12.0243C0 12.0243 0 17.6141 0.668671 20.2933C1.0367 21.7714 2.12103 22.8871 3.49781 23.2821C5.99337 24 16 24 16 24C16 24 26.0066 24 28.5022 23.2821C29.879 22.8871 30.9633 21.7714 31.3313 20.2933C32 17.6141 32 12.0243 32 12.0243C32 12.0243 32 6.43438 31.3313 3.75519V3.75519ZM12.7272 17.0994V6.94906L21.0909 12.0244L12.7272 17.0994V17.0994Z" fill="#EEEEEE"/>
</svg>
